<svg width="24" height="24" viewBox="0 0 24 24" fill="none" xmlns="http://www.w3.org/2000/svg">
<g clip-path="url(#clip0_5_93)">
<path d="M11.1296 11.9279C10.7001 11.7831 9.84575 11.6944 9.0101 13.6645C8.87471 13.9866 8.67864 14.2527 8.63662 14.0053V7.18938C8.63662 6.7132 8.26315 6.33039 7.78697 6.33039C7.31079 6.33039 6.9233 6.7132 6.9233 7.18938V11.5264C6.9233 11.9325 6.40044 11.9652 6.30707 11.6337V6.45177C6.30707 5.97559 5.93359 5.59277 5.45741 5.59277C4.98123 5.59277 4.59375 5.97559 4.59375 6.45177V11.6431C4.52839 11.9605 4.06155 11.9465 4.0242 11.6057V7.07267C4.0242 6.59649 3.65072 6.21368 3.17454 6.21368C2.69836 6.21368 2.31088 6.59649 2.31088 7.07267V11.5357C2.30621 11.5404 2.30621 11.5544 2.30621 11.5684C2.30621 11.9559 1.80669 11.9932 1.71332 11.6758V8.47787C1.71332 8.00169 1.33984 7.61888 0.863662 7.61888C0.387481 7.62355 0 8.01103 0 8.48254V16.0034C0 17.53 0.896342 18.8465 2.19417 19.4581V20.6812C2.19417 21.1574 2.58165 21.5402 3.05316 21.5402H6.49381C6.96999 21.5402 7.3528 21.1527 7.3528 20.6812V19.8129C7.92235 19.7475 8.42188 19.4487 8.744 19.0052C8.74867 19.0005 8.75333 18.9912 8.758 18.9865C8.76734 18.9725 8.77668 18.9632 8.78601 18.9492C9.04745 18.6504 10.4153 15.3031 11.5171 13.0389C11.6945 12.5954 11.5591 12.0726 11.1296 11.9279Z" fill="#FFD3B6"/>
<path d="M12.7542 2.07748C12.7309 2.0448 12.6889 2.02612 12.6515 2.02612H11.209C11.167 2.02612 11.1296 2.0448 11.1063 2.07748C11.0829 2.11015 11.0736 2.15217 11.0829 2.19419L11.8019 4.78517C11.8159 4.8412 11.8672 4.88321 11.9279 4.88321C11.9886 4.88321 12.04 4.84586 12.054 4.78517L12.7729 2.19419C12.7869 2.15217 12.7776 2.11015 12.7542 2.07748ZM16.5497 3.86082L15.532 2.8431C15.5039 2.81509 15.4619 2.80108 15.4199 2.80575C15.3779 2.81042 15.3452 2.83376 15.3219 2.87111L14.0007 5.21467C13.9727 5.26602 13.982 5.33138 14.024 5.3734C14.0474 5.39674 14.0847 5.41075 14.1174 5.41075C14.1408 5.41075 14.1594 5.40608 14.1828 5.39207L16.5263 4.0709C16.5637 4.05223 16.587 4.01488 16.5917 3.97286C16.5917 3.93085 16.5777 3.8935 16.5497 3.86082ZM9.89714 5.21467L8.57597 2.87111C8.5573 2.83376 8.51995 2.81042 8.47793 2.80575C8.43592 2.80108 8.39857 2.81509 8.36589 2.8431L7.34817 3.86082C7.32016 3.88883 7.30615 3.93085 7.31082 3.97286C7.31549 4.01488 7.33883 4.04756 7.37618 4.0709L9.71974 5.39207C9.73841 5.40141 9.76175 5.41075 9.7851 5.41075C9.81778 5.41075 9.85046 5.39674 9.87847 5.3734C9.91581 5.33138 9.92515 5.26602 9.89714 5.21467Z" fill="#00BEEA"/>
<path d="M23.0341 7.62355C22.5579 7.62355 22.1844 8.00636 22.1844 8.48254V11.6804C22.0911 11.9979 21.5915 11.9605 21.5915 11.5731C21.5915 11.559 21.5915 11.5497 21.5869 11.5404V7.07734C21.5869 6.60583 21.1994 6.21834 20.7232 6.21834C20.247 6.21834 19.8736 6.60116 19.8736 7.07734V11.6104C19.8409 11.9512 19.3694 11.9605 19.304 11.6477V6.45177C19.304 5.98025 18.9165 5.59277 18.4403 5.59277C17.9642 5.59277 17.5907 5.97559 17.5907 6.45177V11.6291C17.4973 11.9605 16.9745 11.9279 16.9745 11.5217V7.18938C16.9745 6.7132 16.587 6.33039 16.1108 6.33039C15.6346 6.33039 15.2611 6.7132 15.2611 7.18938V14.01C15.2144 14.2574 15.023 13.9913 14.8877 13.6692C14.0567 11.6991 13.1977 11.7878 12.7682 11.9325C12.3387 12.0772 12.2033 12.5954 12.3807 13.0389C13.4825 15.3031 14.8503 18.6504 15.1117 18.9492C15.1211 18.9632 15.1304 18.9725 15.1398 18.9865C15.1444 18.9912 15.1491 19.0005 15.1538 19.0052C15.4759 19.444 15.9754 19.7475 16.545 19.8129V20.6812C16.545 21.1574 16.9324 21.5402 17.4039 21.5402H20.8446C21.3208 21.5402 21.7036 21.1527 21.7036 20.6812V19.4581C23.0014 18.8465 23.8978 17.53 23.8978 16.0034V8.48254C23.8978 8.01103 23.5103 7.62355 23.0341 7.62355Z" fill="#FFD3B6"/>
<path d="M20.0837 19.8176H19.3881L19.3928 19.8223H16.7318C16.6711 19.8223 16.6104 19.8176 16.5497 19.8083V20.5692C16.7037 20.6346 16.8485 20.6766 16.9745 20.6766H21.2741C21.4002 20.6766 21.5496 20.6252 21.7083 20.5459V19.4581C21.2135 19.6869 20.6626 19.8176 20.0837 19.8176ZM7.17078 19.8223H4.50976L4.51443 19.8176H3.81416C3.23528 19.8176 2.6844 19.6869 2.19421 19.4581V20.5459C2.35294 20.6252 2.49766 20.6766 2.62838 20.6766H6.92802C7.05406 20.6766 7.19879 20.6346 7.35285 20.5692V19.8083C7.29216 19.8176 7.23147 19.8223 7.17078 19.8223Z" fill="#F2C7AA"/>
</g>
<defs>
<clipPath id="clip0_5_93">
<rect width="23.9024" height="23.9024" fill="white"/>
</clipPath>
</defs>
</svg>
